<svg width="16" height="16" viewBox="0 0 16 16" fill="none" xmlns="http://www.w3.org/2000/svg">
<g clip-path="url(#clip0_2238_59)">
<path d="M6.10205 3.87109C5.45335 5.49267 4.16799 6.77713 2.54639 7.42578L1.84717 7.70605L2.54639 7.98633C4.16806 8.63501 5.45337 9.92032 6.10205 11.542L6.38232 12.2412L6.6626 11.542C7.31125 9.92039 8.59571 8.63503 10.2173 7.98633L10.9185 7.70605L10.2173 7.42578C8.5959 6.7771 7.31127 5.49248 6.6626 3.87109L6.38232 3.16992L6.10205 3.87109Z" stroke="#667085" stroke-linecap="round"/>
<path d="M11.5293 1.94434C11.2567 2.45577 10.8385 2.87479 10.3271 3.14746C10.8383 3.42003 11.2567 3.83847 11.5293 4.34961C11.802 3.83823 12.221 3.42005 12.7324 3.14746C12.2208 2.87478 11.802 2.456 11.5293 1.94434Z" stroke="#667085" stroke-linecap="round"/>
<path d="M12.1904 10.4155C11.8937 11.1574 11.3054 11.7457 10.5635 12.0425L10.377 12.1167L10.5635 12.1919C11.3054 12.4887 11.8936 13.0769 12.1904 13.8188L12.2656 14.0054L12.3398 13.8188C12.6367 13.077 13.2249 12.4887 13.9668 12.1919L14.1543 12.1167L13.9668 12.0425C13.2248 11.7457 12.6366 11.1575 12.3398 10.4155L12.2656 10.228L12.1904 10.4155Z" stroke="#667085" stroke-linecap="round"/>
</g>
<defs>
<clipPath id="clip0_2238_59">
<rect width="14" height="14" fill="white" transform="translate(1 1)"/>
</clipPath>
</defs>
</svg>
