<svg width="237" height="47" viewBox="0 0 237 47" fill="none" xmlns="http://www.w3.org/2000/svg">
<g clip-path="url(#clip0_3230_68)">
<path d="M55.0434 44.0102C54.0111 44.0102 53.1508 43.5831 52.5486 42.8997V43.8394H51V33.7595H52.5486V37.6889C53.1508 37.0056 54.0111 36.5785 55.0434 36.5785C57.1082 36.5785 58.5707 38.2015 58.5707 40.337C58.5707 42.3018 57.1082 44.0102 55.0434 44.0102ZM54.7854 37.9452C53.4949 37.9452 52.5486 38.9703 52.5486 40.2516C52.5486 41.533 53.4949 42.558 54.7854 42.558C56.0758 42.558 57.0222 41.533 57.0222 40.2516C56.9361 38.9703 56.0758 37.9452 54.7854 37.9452Z" fill="#283A5E"/>
<path d="M60.5494 47L61.8399 43.754L59.0869 36.6639H60.7215L62.6142 41.7893L64.5069 36.6639H66.1414L62.184 47H60.5494V47Z" fill="#283A5E"/>
<path d="M72.0776 41.3621C72.7659 42.1309 73.6262 42.6434 74.5725 42.6434C75.6909 42.6434 76.4652 42.1309 76.4652 41.2766C76.4652 40.5078 75.949 39.9099 74.3144 39.5682C72.3357 39.1411 71.3033 38.2014 71.3033 36.7493C71.3033 35.1262 72.5938 34.0157 74.4865 34.0157C76.2071 34.0157 77.7557 34.9554 77.9277 36.8347H76.2931C76.2071 35.895 75.5189 35.3825 74.5725 35.3825C73.6262 35.3825 73.024 35.895 73.024 36.5784C73.024 37.3472 73.6262 37.8598 75.0887 38.2014C77.2395 38.714 78.1858 39.6536 78.1858 41.1912C78.1858 42.8143 76.8953 44.0102 74.6585 44.0102C73.3681 44.0102 72.1637 43.3268 71.3033 42.2163L72.0776 41.3621Z" fill="#283A5E"/>
<path d="M80.1644 47L81.4549 43.754L78.7019 36.6639H80.3365L82.2292 41.7893L84.1218 36.6639H85.7564L81.799 47H80.1644V47Z" fill="#283A5E"/>
<path d="M93.4991 39.3974V43.7539H91.9506V39.4828C91.9506 38.5432 91.2623 37.8598 90.316 37.8598C89.3696 37.8598 88.4233 38.714 88.4233 39.8245V43.7539H86.8748V36.6639H88.4233V37.6035C88.9395 36.9202 89.7138 36.493 90.5741 36.493C92.3807 36.493 93.4991 37.689 93.4991 39.3974Z" fill="#283A5E"/>
<path d="M101.93 42.0455C101.242 43.3268 100.124 44.0102 98.7471 44.0102C96.5963 44.0102 94.8757 42.3872 94.8757 40.2516C94.8757 38.1161 96.5103 36.493 98.5751 36.493C100.382 36.493 101.672 37.4327 102.102 39.0557H100.382C100.124 38.3723 99.5214 37.8598 98.6611 37.8598C97.5427 37.8598 96.5103 38.7994 96.5103 40.1662C96.5103 41.6184 97.6287 42.4726 98.8331 42.4726C99.6935 42.4726 100.468 42.0455 101.07 41.2767L101.93 42.0455Z" fill="#283A5E"/>
<path d="M107.436 35.1263C107.264 35.1263 107.006 35.1263 106.834 35.1263C105.888 35.1263 105.544 35.5534 105.544 36.3222V36.7493H107.436V38.0306H105.544V43.7539H103.995V38.0306H102.705V36.6639H103.995V36.2368C103.995 34.5283 104.855 33.7595 106.662 33.7595C106.92 33.7595 107.264 33.7595 107.436 33.8449V35.1263Z" fill="#283A5E"/>
<path d="M108.555 41.1058V36.7493H110.103V41.0204C110.103 41.96 110.791 42.6434 111.738 42.6434C112.77 42.6434 113.63 41.7892 113.63 40.5933V36.7493H115.179V43.8393H113.63V42.8997C113.114 43.5831 112.34 44.0102 111.48 44.0102C109.673 43.9247 108.555 42.8143 108.555 41.1058Z" fill="#283A5E"/>
<path d="M117.416 41.7893C117.932 42.3018 118.534 42.7289 119.308 42.7289C120.083 42.7289 120.599 42.3872 120.599 41.8747C120.599 41.3621 120.169 41.0205 119.222 40.8496C117.674 40.5079 116.9 39.7391 116.9 38.6286C116.9 37.4327 117.846 36.5785 119.394 36.5785C120.857 36.5785 121.889 37.3473 122.061 38.7141H120.513C120.427 38.2015 120.083 37.8598 119.481 37.8598C118.878 37.8598 118.448 38.2015 118.448 38.6286C118.448 39.0557 118.878 39.4829 119.739 39.6537C121.373 39.9954 122.147 40.6788 122.147 41.8747C122.147 43.0706 121.115 44.0102 119.394 44.0102C118.276 44.0102 117.416 43.4977 116.728 42.6435L117.416 41.7893Z" fill="#283A5E"/>
<path d="M124.47 33.7595C124.986 33.7595 125.417 34.1866 125.417 34.6992C125.417 35.2117 124.986 35.6388 124.47 35.6388C123.954 35.6388 123.524 35.2117 123.524 34.6992C123.524 34.1866 123.954 33.7595 124.47 33.7595ZM123.696 36.6639H125.245V43.7539H123.696V36.6639Z" fill="#283A5E"/>
<path d="M130.751 36.493C132.987 36.493 134.708 38.1161 134.708 40.2516C134.708 42.3872 133.073 44.0102 130.751 44.0102C128.514 44.0102 126.793 42.3872 126.793 40.2516C126.793 38.1161 128.514 36.493 130.751 36.493ZM130.751 42.558C132.041 42.558 133.073 41.533 133.073 40.2516C133.073 38.9703 132.041 37.9452 130.751 37.9452C129.46 37.9452 128.428 38.9703 128.428 40.2516C128.428 41.533 129.46 42.558 130.751 42.558Z" fill="#283A5E"/>
<path d="M142.795 39.3974V43.7539H141.246V39.4828C141.246 38.5432 140.558 37.8598 139.612 37.8598C138.665 37.8598 137.719 38.714 137.719 39.8245V43.7539H136.171V36.6639H137.719V37.6035C138.235 36.9202 139.01 36.493 139.87 36.493C141.677 36.493 142.795 37.689 142.795 39.3974Z" fill="#283A5E"/>
<path d="M146.394 35.5645C146.394 36.4052 145.732 37.0707 144.894 37.0707C144.057 37.0707 143.394 36.4052 143.394 35.5645C143.394 34.7238 144.057 34.0932 144.894 34.0932C145.697 34.0582 146.394 34.7238 146.394 35.5645ZM143.952 34.7238C143.743 34.9339 143.638 35.2492 143.638 35.5645C143.638 36.265 144.197 36.8255 144.894 36.8255C145.592 36.8255 146.15 36.265 146.15 35.5645C146.15 34.8989 145.592 34.3034 144.929 34.3034C144.511 34.3034 144.197 34.4435 143.952 34.7238ZM145.487 36.4402H145.173L144.72 35.7746V36.4402H144.476V34.6887H144.755C145.138 34.6887 145.313 34.8639 145.313 35.1791C145.313 35.4243 145.173 35.5995 144.929 35.6695L145.487 36.4402ZM144.825 35.4243C144.999 35.4243 145.104 35.3193 145.104 35.1791C145.104 35.004 144.999 34.9339 144.79 34.9339H144.72V35.4243H144.825Z" fill="#283A5E"/>
<path d="M26.642 0.00508466L17.0918 0.276294C15.9895 0.305352 14.9457 0.712166 14.1263 1.42893C11.0535 4.10229 3.2787 11.299 0.410714 20.617C-1.48177 26.7677 3.41527 32.928 9.98041 32.928H32.6902C33.2364 32.928 33.4803 32.2693 33.0706 31.9206C30.4465 29.7025 27.3346 25.7409 36.3385 16.762C46.8447 6.29133 37.6945 -0.208009 26.642 0.00508466ZM22.7595 21.7115C22.7107 21.8568 22.5644 21.944 22.4083 21.944H10.156C9.34634 21.944 8.78054 21.1594 9.05368 20.4136C9.3756 19.5515 9.88286 18.4667 10.6145 17.4206H25.052C23.9399 18.7767 23.2668 20.3458 22.7595 21.7115ZM30.5733 10.282C30.1636 11.0181 29.5783 11.7833 28.9735 12.4904H13.7946C14.7019 11.0666 16.0773 9.48773 17.2479 8.42227C17.5698 8.13168 17.9796 7.96702 18.4185 7.96702H27.5688C30.3977 7.96702 31.1489 9.23589 30.5733 10.282Z" fill="#283A5E"/>
<path d="M51.1827 26.6269V5.96826H59.2352C63.1139 5.96826 65.527 8.21338 65.527 11.5589C65.527 13.5555 64.4902 15.0907 62.953 15.7385C65.0175 16.2976 66.5815 18.099 66.5815 20.5926C66.5815 24.1067 63.9987 26.6269 60.1914 26.6269H51.1827ZM58.8687 9.89057H55.9552V14.1678H58.8687C60.0842 14.1678 60.9511 13.4047 60.9511 12.0292C60.9511 10.6626 60.0931 9.89057 58.8687 9.89057ZM59.4765 17.9482H55.9552V22.7046H59.4765C60.7813 22.7046 61.7018 21.764 61.7018 20.3264C61.7108 18.8799 60.7902 17.9482 59.4765 17.9482Z" fill="#283A5E"/>
<path d="M77.2168 10.9819C82.1412 10.9819 85.8412 14.496 85.8412 18.9774C85.8412 23.4676 82.1412 26.9729 77.2168 26.9729C72.2924 26.9729 68.5924 23.4588 68.5924 18.9774C68.6013 14.496 72.3013 10.9819 77.2168 10.9819ZM77.2168 22.8198C79.4332 22.8198 81.0956 21.1693 81.0956 18.9863C81.0956 16.8122 79.4332 15.1527 77.2168 15.1527C75.0004 15.1527 73.3381 16.821 73.3381 18.9863C73.3381 21.1693 75.0093 22.8198 77.2168 22.8198Z" fill="#283A5E"/>
<path d="M88.6116 5.08081H93.384V26.6269H88.6116V5.08081Z" fill="#283A5E"/>
<path d="M103.43 10.982C105.449 10.982 107.112 11.7452 108.318 13.023V5.08081H113.019V26.6269H108.318V24.9408C107.112 26.2098 105.449 26.9818 103.43 26.9818C99.1935 26.9818 96.1906 23.4677 96.1906 18.9864C96.1906 14.4961 99.1935 10.982 103.43 10.982ZM104.609 22.8199C106.692 22.8199 108.327 21.1694 108.327 18.9864C108.327 16.8122 106.692 15.1528 104.609 15.1528C102.545 15.1528 100.936 16.8211 100.936 18.9864C100.936 21.1694 102.536 22.8199 104.609 22.8199Z" fill="#283A5E"/>
<path d="M127.178 5.96814C131.531 5.96814 134.525 8.68358 134.525 12.6946C134.525 15.6142 132.961 17.8327 130.396 18.7733L135.079 26.6268H129.743L125.597 19.4211H124.363V26.6268H119.484V5.96814H127.178ZM124.354 9.86382V15.7562H126.669C128.546 15.7562 129.645 14.5582 129.645 12.8189C129.645 11.0441 128.546 9.86382 126.669 9.86382H124.354Z" fill="#283A5E"/>
<path d="M145.383 23.4144C147.421 23.4144 148.941 22.811 150.362 21.5509L152.381 23.796C150.701 25.6596 148.485 26.9818 145.321 26.9818C140.003 26.9818 136.446 23.4677 136.446 18.9863C136.446 14.4961 140.084 10.9908 144.892 10.9908C149.602 10.9908 153.034 14.4428 153.034 18.7378C153.034 19.2525 152.944 19.856 152.81 20.2997H141.228C141.576 22.2342 143.096 23.4144 145.383 23.4144ZM141.308 17.3003H148.172C147.797 15.6142 146.599 14.5582 144.829 14.5582C143.096 14.5582 141.773 15.5876 141.308 17.3003Z" fill="#283A5E"/>
<path d="M165.385 26.9817C163.365 26.9817 161.685 26.2186 160.496 24.9407V33.4686H155.795V11.3369H160.496V13.023C161.685 11.754 163.365 10.9819 165.385 10.9819C169.603 10.9819 172.624 14.496 172.624 18.9774C172.624 23.4676 169.603 26.9817 165.385 26.9817ZM164.196 15.1438C162.132 15.1438 160.496 16.8121 160.496 18.9774C160.496 21.1604 162.132 22.811 164.196 22.811C166.261 22.811 167.879 21.1604 167.879 18.9774C167.879 16.8121 166.261 15.1438 164.196 15.1438Z" fill="#283A5E"/>
<path d="M183.054 10.9819C187.978 10.9819 191.678 14.496 191.678 18.9774C191.678 23.4676 187.978 26.9729 183.054 26.9729C178.129 26.9729 174.429 23.4588 174.429 18.9774C174.429 14.496 178.129 10.9819 183.054 10.9819ZM183.054 22.8198C185.27 22.8198 186.933 21.1693 186.933 18.9863C186.933 16.8122 185.27 15.1527 183.054 15.1527C180.837 15.1527 179.175 16.821 179.175 18.9863C179.166 21.1693 180.837 22.8198 183.054 22.8198Z" fill="#283A5E"/>
<path d="M199.203 18.516V26.6357H194.431V11.3369H199.203V13.0673C200.186 11.7983 201.536 10.9819 203.279 10.9819C203.708 10.9819 204.128 11.0884 204.423 11.2215L204.083 15.4899C203.484 15.2858 202.805 15.1527 202.206 15.1527C200.597 15.1438 199.203 16.3773 199.203 18.516Z" fill="#283A5E"/>
<path d="M212.681 21.0983C212.681 22.3229 213.244 22.882 214.656 22.882C215.165 22.882 215.782 22.8554 216.22 22.7933V26.2896C215.451 26.7511 214.361 26.9818 213.199 26.9818C209.91 26.9818 207.89 25.0029 207.89 21.5775V15.4367H205.361V11.3369H207.89V7.61873L212.681 6.90881V11.3369H216.041V15.4367H212.681V21.0983Z" fill="#283A5E"/>
<path d="M219.804 21.684C221.019 22.8021 222.333 23.3789 223.798 23.3789C224.987 23.3789 225.675 22.9086 225.675 22.1543C225.675 21.4 225.076 20.9297 223.316 20.557C220.072 19.8737 218.338 18.1255 218.338 15.5698C218.338 12.9165 220.67 10.9819 224.049 10.9819C227.704 10.9819 229.742 13.0673 230.162 15.9691H226.033C225.854 15.0995 225.246 14.5848 224.326 14.5848C223.477 14.5848 222.851 14.9841 222.851 15.6319C222.851 16.3152 223.432 16.8388 225.112 17.1937C228.633 17.9303 230.296 19.6252 230.296 22.1809C230.296 24.923 227.874 26.9817 224.093 26.9817C221.805 26.9817 219.75 25.8725 218.07 23.7516L219.804 21.684Z" fill="#283A5E"/>
<path d="M237 7.90968C237 9.59106 235.674 10.9222 234 10.9222C232.326 10.9222 231 9.59106 231 7.90968C231 6.22829 232.326 4.96724 234 4.96724C235.605 4.89719 237 6.22829 237 7.90968ZM232.116 6.22828C231.698 6.64863 231.488 7.27915 231.488 7.90968C231.488 9.31083 232.605 10.4318 234 10.4318C235.395 10.4318 236.512 9.31083 236.512 7.90968C236.512 6.57858 235.395 5.38759 234.07 5.38759C233.233 5.38759 232.605 5.66782 232.116 6.22828ZM235.186 9.66112H234.558L233.651 8.33002V9.66112H233.163V6.15823H233.721C234.488 6.15823 234.837 6.50852 234.837 7.13904C234.837 7.62944 234.558 7.97973 234.07 8.11985L235.186 9.66112ZM233.86 7.62944C234.209 7.62944 234.419 7.41927 234.419 7.13904C234.419 6.78875 234.209 6.64863 233.791 6.64863H233.651V7.62944H233.86V7.62944Z" fill="#283A5E"/>
</g>
<defs>
<clipPath id="clip0_3230_68">
<rect width="237" height="47" fill="white"/>
</clipPath>
</defs>
</svg>