<svg width="16" height="16" viewBox="0 0 16 16" fill="none" xmlns="http://www.w3.org/2000/svg">
<path d="M3.74683 10.3091L6.50076 8.76375L6.54685 8.62908L6.50076 8.55464H6.36608L5.90532 8.52629L4.33164 8.48376L2.96708 8.42704L1.64506 8.35616L1.3119 8.28528L1 7.87413L1.03189 7.66856L1.3119 7.48071L1.7124 7.51616L2.59848 7.57642L3.92759 7.66856L4.89165 7.72527L6.32001 7.87413H6.54685L6.57873 7.78198L6.50076 7.72527L6.44051 7.66856L5.06531 6.73641L3.57671 5.7511L2.79696 5.184L2.37519 4.89692L2.16253 4.62755L2.07037 4.03918L2.45316 3.61742L2.96708 3.65285L3.09823 3.6883L3.61924 4.08881L4.73216 4.95008L6.18532 6.02047L6.39798 6.19767L6.48304 6.13743L6.49367 6.09488L6.39798 5.93539L5.60759 4.50703L4.76406 3.05387L4.38836 2.45135L4.28911 2.08982C4.25366 1.94095 4.22886 1.81691 4.22886 1.6645L4.66481 1.0726L4.90582 0.994629L5.48709 1.0726L5.73165 1.28526L6.09317 2.11109L6.67798 3.41184L7.58532 5.18046L7.85114 5.70501L7.99292 6.19059L8.04608 6.33945H8.13824V6.25439L8.21266 5.25844L8.35089 4.03564L8.48558 2.46198L8.53166 2.01893L8.7514 1.48729L9.18736 1.20019L9.5276 1.36323L9.80761 1.76375L9.76862 2.02247L9.60203 3.10349L9.27596 4.79767L9.06329 5.93185H9.18736L9.32912 5.79009L9.9033 5.02805L10.8674 3.82299L11.2927 3.34451L11.7889 2.8164L12.1079 2.56475H12.7104L13.1534 3.22399L12.955 3.90451L12.3347 4.69134L11.8208 5.35767L11.0835 6.35008L10.6228 7.144L10.6653 7.2078L10.7752 7.19717L12.441 6.84274L13.3412 6.67971L14.4152 6.4954L14.9007 6.72224L14.9539 6.95262L14.7625 7.42401L13.6142 7.70755L12.2674 7.97692L10.2613 8.45185L10.2365 8.46958L10.2648 8.50503L11.1686 8.59009L11.555 8.61135H12.5013L14.2628 8.7425L14.7236 9.04729L15 9.41945L14.9539 9.70299L14.245 10.0645L13.2881 9.83768L11.0552 9.30603L10.2896 9.11464H10.1833V9.17844L10.8213 9.80224L11.9909 10.8584L13.4547 12.2195L13.5292 12.5562L13.3412 12.822L13.1428 12.7936L11.8562 11.826L11.36 11.3901L10.2365 10.4438H10.162V10.543L10.4208 10.9222L11.7889 12.9779L11.8598 13.6088L11.7605 13.8144L11.4061 13.9385L11.0162 13.8676L10.2152 12.744L9.38938 11.4787L8.72305 10.3445L8.64153 10.3906L8.2481 14.6261L8.06381 14.8423L7.63849 15.0053L7.28406 14.7358L7.09621 14.2999L7.28406 13.4387L7.51089 12.3152L7.69519 11.422L7.86177 10.3126L7.96102 9.94402L7.95393 9.9192L7.87242 9.92983L7.03595 11.0782L5.76354 12.7972L4.75696 13.8746L4.51595 13.9704L4.09772 13.7542L4.1367 13.3678L4.37063 13.024L5.76354 11.2519L6.60355 10.1531L7.14583 9.5187L7.14229 9.42654H7.11038L3.41013 11.8296L2.75089 11.9146L2.46733 11.6488L2.50278 11.2129L2.63747 11.0711L3.75037 10.3055L3.74683 10.3091Z" fill="#667085"/>
</svg>
