<svg width="54" height="54" viewBox="0 0 54 54" fill="none" xmlns="http://www.w3.org/2000/svg">
<path d="M5 29.0474V24.9526C5 22.5309 6.87146 20.5495 9.1588 20.5495C13.1512 20.5495 14.7732 17.5554 12.7769 13.9008C11.6125 11.7873 12.3195 9.05741 14.3157 7.86858L18.1002 5.53494C19.8469 4.43417 22.0927 5.09463 23.1324 6.94393L23.3819 7.38424C25.3781 11.0388 28.622 11.0388 30.6182 7.38424L30.8677 6.94393C31.9074 5.09463 34.1532 4.4782 35.8999 5.53494L39.6844 7.86858C41.6806 9.10144 42.3876 11.7873 41.2231 13.9008C39.2269 17.5554 40.8488 20.5495 44.8413 20.5495C47.1286 20.5495 49.0001 22.5309 49.0001 24.9526V29.0474C49.0001 31.4691 47.1286 33.4505 44.8413 33.4505C40.8488 33.4505 39.2269 36.4446 41.2231 40.0992C42.3876 42.2127 41.6806 44.9426 39.6844 46.1314L35.8999 48.4651C34.1532 49.5658 31.9074 48.9054 30.8677 47.0561L30.6182 46.6158C28.622 42.9612 25.3781 42.9612 23.3819 46.6158L23.1324 47.0561C22.0927 48.9054 19.8469 49.5218 18.1002 48.4651L14.3157 46.1314C12.3195 44.8986 11.6125 42.2127 12.7769 40.0992C14.7732 36.4446 13.1512 33.4505 9.1588 33.4505C6.87146 33.4946 5 31.5132 5 29.0474Z" stroke="#0058E6" stroke-width="1.5" stroke-miterlimit="10" stroke-linecap="round" stroke-linejoin="round"/>
<path d="M26.9994 37.9119C33.0257 37.9119 37.9109 33.0266 37.9109 27.0004C37.9109 20.9741 33.0257 16.0889 26.9994 16.0889C20.9731 16.0889 16.0879 20.9741 16.0879 27.0004C16.0879 33.0266 20.9731 37.9119 26.9994 37.9119Z" stroke="#0058E6" stroke-width="1.5" stroke-miterlimit="10" stroke-linecap="round" stroke-linejoin="round"/>
<path d="M33.3066 21.9839L21.1751 21.9839" stroke="#0058E6" stroke-width="1.5" stroke-linecap="round" stroke-linejoin="round"/>
<path d="M33.3066 26.8369L21.1751 26.8369" stroke="#0058E6" stroke-width="1.5" stroke-linecap="round" stroke-linejoin="round"/>
<path d="M33.3066 32.498L21.1751 32.498" stroke="#0058E6" stroke-width="1.5" stroke-linecap="round" stroke-linejoin="round"/>
<circle cx="24.598" cy="27.0236" r="0.995786" transform="rotate(90 24.598 27.0236)" stroke="#0058E6" stroke-width="1.5" stroke-linecap="round" stroke-linejoin="round"/>
<circle cx="30.2586" cy="22.1711" r="0.995786" transform="rotate(90 30.2586 22.1711)" stroke="#0058E6" stroke-width="1.5" stroke-linecap="round" stroke-linejoin="round"/>
<circle cx="29.0008" cy="32.6852" r="0.995786" transform="rotate(90 29.0008 32.6852)" stroke="#0058E6" stroke-width="1.5" stroke-linecap="round" stroke-linejoin="round"/>
</svg>
