<svg width="54" height="54" viewBox="0 0 54 54" fill="none" xmlns="http://www.w3.org/2000/svg">
<g clip-path="url(#clip0_1200_1851)">
<path d="M22.5356 3.75C27.6527 3.75 32.2528 4.50547 35.5464 5.70312C37.1961 6.30302 38.4785 6.99958 39.3345 7.73535C40.1927 8.47319 40.5482 9.18117 40.5483 9.82227C40.5483 10.4634 40.1928 11.1712 39.3345 11.9092C38.4785 12.645 37.1963 13.3424 35.5464 13.9424C32.2528 15.14 27.6526 15.8955 22.5356 15.8955C17.4189 15.8955 12.8194 15.1399 9.52588 13.9424C7.87598 13.3424 6.59274 12.645 5.73682 11.9092C4.87878 11.1714 4.52393 10.4633 4.52393 9.82227C4.52404 9.18121 4.87869 8.47315 5.73682 7.73535C6.59274 6.99949 7.87598 6.30309 9.52588 5.70312C12.8194 4.50554 17.4189 3.75004 22.5356 3.75Z" stroke="#0058E6" stroke-width="1.5"/>
<path d="M40.5474 9.82251L40.5475 25.0532" stroke="#0058E6" stroke-width="1.5" stroke-linecap="round"/>
<path d="M4.65967 19.5039C4.65967 23.2719 12.4196 25.7422 23.1311 25.7422C27.0632 25.7422 30.2638 25.5466 32.9074 25.0348C34.3557 24.7544 39.1585 23.1572 40.5476 21.8134" stroke="#0058E6" stroke-width="1.5" stroke-linecap="round"/>
<path d="M4.80039 29.8021C4.80039 33.5701 12.4199 35.9759 23.1314 35.9759C23.8207 35.9759 24.4876 35.9698 25.133 35.9572" stroke="#0058E6" stroke-width="1.5" stroke-linecap="round"/>
<path d="M4.55371 10.0277L4.91174 39.3715C4.91174 43.1482 12.1747 46.2099 22.5367 46.2099C23.2935 46.2099 24.0338 46.1935 24.7558 46.1618" stroke="#0058E6" stroke-width="1.5" stroke-linecap="round"/>
<path d="M37.9594 39.8102C38.3822 40.3754 38.9217 40.8432 39.5412 41.1816C40.1606 41.52 40.8456 41.7213 41.5497 41.7717C42.2538 41.8222 42.9605 41.7206 43.6219 41.4739C44.2832 41.2271 44.8838 40.8411 45.3829 40.3418L48.3365 37.3882C49.2332 36.4598 49.7294 35.2163 49.7182 33.9256C49.707 32.6349 49.1892 31.4002 48.2765 30.4875C47.3638 29.5748 46.1291 29.0571 44.8384 29.0458C43.5477 29.0346 42.3042 29.5308 41.3758 30.4275L39.6824 32.1111M41.8976 37.8411C41.4748 37.2759 40.9354 36.8081 40.3159 36.4697C39.6964 36.1313 39.0114 35.93 38.3073 35.8796C37.6032 35.8292 36.8965 35.9307 36.2352 36.1775C35.5738 36.4242 34.9732 36.8102 34.4742 37.3095L31.5205 40.2631C30.6238 41.1915 30.1276 42.435 30.1389 43.7257C30.1501 45.0164 30.6678 46.2511 31.5805 47.1638C32.4932 48.0765 33.7279 48.5943 35.0186 48.6055C36.3093 48.6167 37.5528 48.1205 38.4812 47.2238L40.1648 45.5402" stroke="#0058E6" stroke-width="1.5" stroke-linecap="round" stroke-linejoin="round"/>
</g>
<defs>
<clipPath id="clip0_1200_1851">
<rect width="48" height="48" fill="white" transform="translate(3 3)"/>
</clipPath>
</defs>
</svg>
