<svg width="54" height="54" viewBox="0 0 54 54" fill="none" xmlns="http://www.w3.org/2000/svg">
<path d="M37.1866 37.0615L37.1866 31.472M37.1866 31.472V25.1777C37.1866 23.4394 35.8808 23.0392 35.2278 23.0563C33.5855 23.0412 33.2557 24.4643 33.2962 25.1777V35.5631L30.494 33.0455C29.1334 31.8077 27.844 32.1626 27.3693 32.4948C26.4043 33.0193 26.8377 34.4265 27.175 35.0645L30.494 40.2672L34.1531 46.1387C37.7171 51.1313 44.0163 49.5684 46.0337 48.0909C48.5946 46.2617 49.4088 43.4608 49.4957 42.289V35.5631C49.5958 33.761 48.1958 33.2687 47.4834 33.2478C45.9356 33.1816 45.4163 34.2014 45.3502 34.7195M37.1866 31.472C37.3144 31.0159 37.9137 30.1114 39.2889 30.1423C39.9907 30.181 41.3865 30.7102 41.3555 32.518V32.813M41.3555 37.0615L41.3555 32.813M41.3555 32.813C41.4052 32.2758 41.9054 31.1986 43.5086 31.1874C44.1225 31.2206 45.3502 31.5921 45.3502 32.813V34.7195M45.3502 37.0615L45.3502 34.7195" stroke="#0058E6" stroke-width="1.5" stroke-linecap="round" stroke-linejoin="round"/>
<path d="M49.3877 25.8414V9.44435C49.3877 6.68973 47.1546 4.45667 44.4 4.45667H9.48622C6.7316 4.45667 4.49854 6.68973 4.49854 9.44435V29.3951C4.49854 32.1497 6.7316 34.3828 9.48622 34.3828H22.4499" stroke="#0058E6" stroke-width="1.5" stroke-linecap="round" stroke-linejoin="round"/>
<path d="M21.0527 13.7637V23.9628C21.3066 25.6458 22.7954 25.2052 23.508 24.7745L31.7115 20.0582C33.2436 19.075 32.2164 18.0669 31.5114 17.6858L23.508 13.0267C21.7015 11.9291 21.1184 13.0607 21.0527 13.7637Z" stroke="#0058E6" stroke-width="1.5" stroke-linecap="round" stroke-linejoin="round"/>
<path d="M14.2451 41.8643H26.5369" stroke="#0058E6" stroke-width="1.5" stroke-linecap="round" stroke-linejoin="round"/>
</svg>
