<svg width="54" height="54" viewBox="0 0 54 54" fill="none" xmlns="http://www.w3.org/2000/svg">
<path d="M43.5938 8.91943H10.4062C7.92097 8.91943 5.90625 10.9341 5.90625 13.4194V40.5801C5.90625 43.0654 7.92097 45.0801 10.4063 45.0801H40.3594H43.5938C46.079 45.0801 48.0938 43.0654 48.0938 40.5802V13.4194C48.0938 10.9342 46.079 8.91943 43.5938 8.91943Z" stroke="#0058E6" stroke-width="1.5" stroke-linecap="round"/>
<path d="M6.76904 17.1948H48.0938" stroke="#0058E6" stroke-width="1.5" stroke-linecap="square" stroke-linejoin="round"/>
<circle cx="11.4014" cy="13.2664" r="1.31836" fill="#0058E6"/>
<circle cx="16.2979" cy="13.2664" r="1.31836" fill="#0058E6"/>
<circle cx="21.1948" cy="13.2664" r="1.31836" fill="#0058E6"/>
<path d="M31.4621 35.3208L35.9262 30.8567L31.4621 26.3926M22.5339 26.3926L18.0698 30.8567L22.5339 35.3208M28.7837 22.8213L25.2124 38.892" stroke="#0058E6" stroke-width="1.5" stroke-linecap="round" stroke-linejoin="round"/>
</svg>
