<svg width="54" height="54" viewBox="0 0 54 54" fill="none" xmlns="http://www.w3.org/2000/svg">
<circle cx="21.5557" cy="14.9795" r="9.52935" stroke="#0058E6" stroke-width="1.5"/>
<path d="M23.6719 46.9362H5.06012C4.6453 41.0102 7.44214 28.6249 21.949 27.9138C22.9088 27.8668 24.6465 27.8898 26.6428 28.1654" stroke="#0058E6" stroke-width="1.5" stroke-linecap="round" stroke-linejoin="round"/>
<path d="M25.6592 38.7258V36.5557C25.6592 35.2723 26.651 34.2222 27.8632 34.2222C29.9791 34.2222 30.8387 32.6354 29.7807 30.6986C29.1636 29.5785 29.5383 28.1317 30.5962 27.5017L32.6019 26.2649C33.5276 25.6816 34.7178 26.0316 35.2688 27.0117L35.401 27.245C36.4589 29.1818 38.1781 29.1818 39.236 27.245L39.3683 27.0117C39.9193 26.0316 41.1094 25.7049 42.0351 26.2649L44.0408 27.5017C45.0987 28.1551 45.4734 29.5785 44.8563 30.6986C43.7984 32.6354 44.6579 34.2222 46.7738 34.2222C47.986 34.2222 48.9778 35.2723 48.9778 36.5557V38.7258C48.9778 40.0093 47.986 41.0593 46.7738 41.0593C44.6579 41.0593 43.7984 42.6461 44.8563 44.5829C45.4734 45.703 45.0987 47.1498 44.0408 47.7798L42.0351 49.0166C41.1094 49.5999 39.9193 49.2499 39.3683 48.2698L39.236 48.0365C38.1781 46.0997 36.4589 46.0997 35.401 48.0365L35.2688 48.2698C34.7178 49.2499 33.5276 49.5766 32.6019 49.0166L30.5962 47.7798C29.5383 47.1264 29.1636 45.703 29.7807 44.5829C30.8387 42.6461 29.9791 41.0593 27.8632 41.0593C26.651 41.0827 25.6592 40.0326 25.6592 38.7258Z" stroke="#0058E6" stroke-width="1.5" stroke-miterlimit="10" stroke-linecap="round" stroke-linejoin="round"/>
<path d="M37.3176 41.5273C39.464 41.5273 41.204 39.7873 41.204 37.6408C41.204 35.4944 39.464 33.7544 37.3176 33.7544C35.1712 33.7544 33.4312 35.4944 33.4312 37.6408C33.4312 39.7873 35.1712 41.5273 37.3176 41.5273Z" fill="" stroke="#0058E6" stroke-width="1.5" stroke-miterlimit="10" stroke-linecap="round" stroke-linejoin="round"/>
</svg>
