<svg width="54" height="54" viewBox="0 0 54 54" fill="none" xmlns="http://www.w3.org/2000/svg">
<path d="M21.728 5.68994C26.4145 5.68996 30.6248 6.38198 33.6362 7.47705C35.1449 8.02568 36.3134 8.66161 37.0903 9.32959C37.8695 9.9996 38.1812 10.633 38.1812 11.1958C38.1811 11.7586 37.8696 12.392 37.0903 13.062C36.3133 13.73 35.145 14.3659 33.6362 14.9146C30.6248 16.0096 26.4145 16.7007 21.728 16.7007C17.0416 16.7007 12.8313 16.0096 9.81982 14.9146C8.31106 14.3659 7.14275 13.73 6.36572 13.062C5.58638 12.392 5.27499 11.7586 5.2749 11.1958C5.2749 10.6329 5.58637 9.99967 6.36572 9.32959C7.14275 8.66156 8.31101 8.02571 9.81982 7.47705C12.8313 6.38197 17.0415 5.68994 21.728 5.68994Z" stroke="#0058E6" stroke-width="1.5"/>
<path d="M38.2427 11.1956L38.2428 25.1606" stroke="#0058E6" stroke-width="1.5" stroke-linecap="round"/>
<path d="M5.33691 20.0723C5.33691 23.5271 12.452 25.7921 22.2734 25.7921C25.8787 25.7921 28.8133 25.6128 31.2372 25.1435C32.5652 24.8864 36.9688 23.4219 38.2425 22.1898" stroke="#0058E6" stroke-width="1.5" stroke-linecap="round"/>
<path d="M5.46591 29.5147C5.46591 32.9696 12.4522 35.1755 22.2736 35.1755C22.9056 35.1755 23.5171 35.1699 24.1088 35.1583" stroke="#0058E6" stroke-width="1.5" stroke-linecap="round"/>
<path d="M5.23974 11.3836L5.56803 38.2889C5.56803 41.7518 12.2274 44.559 21.7284 44.559C22.4222 44.559 23.101 44.544 23.7631 44.5149" stroke="#0058E6" stroke-width="1.5" stroke-linecap="round"/>
<path d="M28.3862 41.0403V39.0777C28.3862 37.917 29.2832 36.9673 30.3795 36.9673C32.293 36.9673 33.0704 35.5323 32.1136 33.7807C31.5555 32.7677 31.8944 31.4593 32.8511 30.8895L34.665 29.771C35.5022 29.2435 36.5785 29.56 37.0768 30.4463L37.1964 30.6574C38.1532 32.409 39.7079 32.409 40.6647 30.6574L40.7843 30.4463C41.2826 29.56 42.359 29.2646 43.1961 29.771L45.01 30.8895C45.9668 31.4804 46.3056 32.7677 45.7475 33.7807C44.7907 35.5323 45.5681 36.9673 47.4816 36.9673C48.5779 36.9673 49.4749 37.917 49.4749 39.0777V41.0403C49.4749 42.201 48.5779 43.1506 47.4816 43.1506C45.5681 43.1506 44.7907 44.5856 45.7475 46.3372C46.3056 47.3502 45.9668 48.6586 45.01 49.2284L43.1961 50.3469C42.359 50.8745 41.2826 50.5579 40.7843 49.6716L40.6647 49.4605C39.7079 47.709 38.1532 47.709 37.1964 49.4605L37.0768 49.6716C36.5785 50.5579 35.5022 50.8534 34.665 50.3469L32.8511 49.2284C31.8944 48.6375 31.5555 47.3502 32.1136 46.3372C33.0704 44.5856 32.293 43.1506 30.3795 43.1506C29.2832 43.1717 28.3862 42.2221 28.3862 41.0403Z" stroke="#0058E6" stroke-width="1.5" stroke-miterlimit="10" stroke-linecap="round" stroke-linejoin="round"/>
<path d="M38.9235 43.5759C40.8646 43.5759 42.4382 42.0023 42.4382 40.0612C42.4382 38.12 40.8646 36.5464 38.9235 36.5464C36.9823 36.5464 35.4087 38.12 35.4087 40.0612C35.4087 42.0023 36.9823 43.5759 38.9235 43.5759Z" stroke="#0058E6" stroke-width="1.5" stroke-miterlimit="10" stroke-linecap="round" stroke-linejoin="round"/>
</svg>
