<svg width="16" height="16" viewBox="0 0 16 16" fill="none" xmlns="http://www.w3.org/2000/svg">
<path d="M12.3798 1.01318H3.6202C2.1731 1.01318 1 2.18629 1 3.63339V9.47715C1 10.8612 2.12195 11.9831 3.50595 11.9831C3.535 11.9831 3.56197 11.9982 3.57716 12.023L5.32088 14.8661C5.3549 14.9216 5.43545 14.9217 5.46964 14.8664L7.2245 12.0246C7.24041 11.9988 7.26853 11.9831 7.29881 11.9831H12.3798C13.8269 11.9831 15 10.81 15 9.3629V3.63339C15 2.18629 13.8269 1.01318 12.3798 1.01318Z" stroke="#667085"/>
<path d="M3.71143 4.35742H11.3247" stroke="#667085" stroke-linecap="round"/>
<path d="M3.71143 7.87305L8.89724 7.87305" stroke="#667085" stroke-linecap="round"/>
</svg>
