<svg width="54" height="54" viewBox="0 0 54 54" fill="none" xmlns="http://www.w3.org/2000/svg">
<path d="M4.99893 21.0799L4.3243 20.7523L4.32359 20.7537L4.99893 21.0799ZM33.4782 31.9757L33.5503 32.7222L33.4782 31.9757ZM21.5664 32.087L21.5709 31.337L21.5664 32.087ZM28.5755 32.0956L28.5712 31.3457L28.5755 32.0956ZM35.374 34.9598C35.2646 34.5604 34.852 34.3252 34.4525 34.4347C34.053 34.5441 33.8179 34.9567 33.9273 35.3562L34.6507 35.158L35.374 34.9598ZM33.9103 14.6976C33.8443 15.1065 34.1223 15.4915 34.5313 15.5575C34.9402 15.6234 35.3252 15.3454 35.3911 14.9365L34.6507 14.817L33.9103 14.6976ZM38.5895 11.8686L38.5586 12.6179L38.5895 11.8686ZM42.6827 15.1346L42.2637 14.5125L42.6827 15.1346ZM40.4106 14.3413L39.6955 14.5675L40.4106 14.3413ZM46.6517 19.4923L45.9708 19.1777L46.6517 19.4923ZM49.0176 27.0734L48.7779 26.3628L49.0176 27.0734ZM46.9995 32.814L47.5298 33.3444L46.9995 32.814ZM47.2175 30.9653L46.5784 31.3577L47.2175 30.9653ZM43.6426 34.5275L44.039 33.8908L43.6426 34.5275ZM45.4992 34.3144L44.9688 33.784L45.4992 34.3144ZM34.8463 35.872L34.123 36.0702L34.8463 35.872ZM29.7242 35.8847L30.0255 35.1979V35.1979L29.7242 35.8847ZM40.4108 34.6932L39.6999 34.4541L40.4108 34.6932ZM39.9867 35.954L40.6976 36.1931L39.9867 35.954ZM31.0669 36.4737L30.7656 37.1605V37.1605L31.0669 36.4737ZM47.3935 17.8869L48.0743 18.2015L47.3935 17.8869ZM47.0813 16.1836L47.6063 15.648L47.0813 16.1836ZM30.4806 18.023L31.2251 17.9327L30.4806 18.023ZM30.9642 18.3987L31.0655 19.1418L30.9642 18.3987ZM12.266 18.2136L12.5449 17.5174L12.266 18.2136ZM12.878 17.8491L12.132 17.7717L12.878 17.8491ZM45.5305 14.6635L45.0055 15.1991L45.5305 14.6635ZM43.6393 14.4903L43.2204 13.8682L43.6393 14.4903ZM39.2581 25.548L38.5139 25.4549L39.2581 25.548ZM36.8416 30.3131L36.3468 29.7494L36.8416 30.3131ZM46.5336 29.8514L47.1727 29.459L46.5336 29.8514ZM47.3338 27.6414L47.5735 28.3521L47.3338 27.6414ZM9.18345 31.5403L8.9212 32.2429L9.18345 31.5403ZM12.2228 31.9969L12.213 32.7469L12.2228 31.9969ZM9.18345 31.5403L9.44569 30.8376C7.91073 30.2647 6.3079 29.2517 5.42122 27.7502C4.56429 26.299 4.29712 24.2571 5.67427 21.4061L4.99893 21.0799L4.32359 20.7537C2.7696 23.9707 2.97257 26.5535 4.12962 28.5129C5.25692 30.4219 7.21191 31.605 8.9212 32.2429L9.18345 31.5403ZM4.99893 21.0799L5.67356 21.4076C6.02522 20.6836 6.76917 19.7012 7.84038 19.0855C8.87833 18.4888 10.2533 18.2154 11.9871 18.9099L12.266 18.2136L12.5449 17.5174C10.3625 16.6432 8.50756 16.9718 7.09287 17.785C5.71144 18.579 4.77997 19.8141 4.3243 20.7523L4.99893 21.0799ZM12.878 17.8491L13.624 17.9266C13.7752 16.4704 14.3341 14.5576 15.5598 13.0535C16.7592 11.5816 18.628 10.4574 21.5399 10.5605L21.5664 9.81098L21.593 9.06145C18.1984 8.94129 15.8844 10.2806 14.397 12.1059C12.9359 13.8989 12.3038 16.1168 12.132 17.7717L12.878 17.8491ZM21.5664 9.81098L21.5399 10.5605C24.5204 10.666 26.464 11.8901 27.7169 13.3948C28.9894 14.9232 29.5737 16.7743 29.736 18.1132L30.4806 18.023L31.2251 17.9327C31.036 16.3729 30.3652 14.2313 28.8696 12.435C27.3543 10.6152 25.0166 9.18264 21.593 9.06145L21.5664 9.81098ZM30.9642 18.3987L31.0655 19.1418C32.767 18.9099 34.8558 19.036 36.3837 19.9273C37.1314 20.3634 37.7443 20.9812 38.1328 21.8446C38.5237 22.7135 38.7105 23.8833 38.5139 25.4549L39.2581 25.548L40.0023 25.6412C40.2247 23.8637 40.0296 22.4046 39.5007 21.2292C38.9694 20.0483 38.1246 19.2063 37.1395 18.6316C35.2018 17.5014 32.7247 17.4018 30.8629 17.6556L30.9642 18.3987ZM36.8416 30.3131L36.3468 29.7494C35.4636 30.5248 34.4353 31.1296 33.406 31.2292L33.4782 31.9757L33.5503 32.7222C35.0317 32.5789 36.3494 31.7432 37.3364 30.8767L36.8416 30.3131ZM14.8011 32.0281L14.8095 31.2782C13.8997 31.268 13.0334 31.2574 12.2326 31.247L12.2228 31.9969L12.213 32.7469C13.0147 32.7573 13.882 32.7679 14.7927 32.7781L14.8011 32.0281ZM14.8011 32.0281H14.0511V34.1016H14.8011H15.5511V32.0281H14.8011ZM13.6205 35.8735L13.3317 35.1814L11.8666 35.7928L12.1554 36.4849L12.4443 37.1771L13.9094 36.5656L13.6205 35.8735ZM10.9749 38.2568H10.2249V39.4656H10.9749H11.7249V38.2568H10.9749ZM21.5664 32.087L21.5709 31.337C19.2682 31.3234 16.9219 31.3018 14.8095 31.2782L14.8011 32.0281L14.7927 32.7781C16.9072 32.8017 19.2561 32.8233 21.562 32.837L21.5664 32.087ZM21.5664 32.087H20.8164V39.4656H21.5664H22.3164V32.087H21.5664ZM33.4782 31.9757L33.406 31.2292C32.7192 31.2956 30.9429 31.3322 28.5712 31.3457L28.5755 32.0956L28.5798 32.8456C30.924 32.8323 32.78 32.7967 33.5503 32.7222L33.4782 31.9757ZM28.5755 32.0956L28.5712 31.3457C26.5283 31.3573 24.0761 31.3519 21.5709 31.337L21.5664 32.087L21.562 32.837C24.07 32.8519 26.5286 32.8573 28.5798 32.8456L28.5755 32.0956ZM28.5755 32.0956H27.8255V34.1264H28.5755H29.3255V32.0956H28.5755ZM29.7242 35.8847L29.4229 36.5715L30.7656 37.1605L31.0669 36.4737L31.3682 35.7869L30.0255 35.1979L29.7242 35.8847ZM32.2156 38.232H31.4656V39.4656H32.2156H32.9656V38.232H32.2156ZM34.6507 35.158L33.9273 35.3562L34.123 36.0702L34.8463 35.872L35.5696 35.6738L35.374 34.9598L34.6507 35.158ZM36.2955 36.9776V37.7276H38.5625V36.9776V36.2276H36.2955V36.9776ZM39.9867 35.954L40.6976 36.1931L41.1217 34.9324L40.4108 34.6932L39.6999 34.4541L39.2758 35.7149L39.9867 35.954ZM42.629 33.8966L42.2327 34.5334L43.2463 35.1643L43.6426 34.5275L44.039 33.8908L43.0254 33.2599L42.629 33.8966ZM45.4992 34.3144L46.0295 34.8447L47.5298 33.3444L46.9995 32.814L46.4692 32.2837L44.9688 33.784L45.4992 34.3144ZM47.2175 30.9653L47.8566 30.5729L47.1727 29.459L46.5336 29.8514L45.8944 30.2438L46.5784 31.3577L47.2175 30.9653ZM47.3338 27.6414L47.5735 28.3521L49.2573 27.7841L49.0176 27.0734L48.7779 26.3628L47.0941 26.9307L47.3338 27.6414ZM50.04 25.6496H50.79V23.402H50.04H49.29V25.6496H50.04ZM48.955 21.9586L49.1634 21.2381L47.8065 20.8455L47.5981 21.566L47.3896 22.2864L48.7465 22.679L48.955 21.9586ZM46.6517 19.4923L47.3325 19.8069L48.0743 18.2015L47.3935 17.8869L46.7126 17.5723L45.9708 19.1777L46.6517 19.4923ZM47.0813 16.1836L47.6063 15.648L46.0555 14.1279L45.5305 14.6635L45.0055 15.1991L46.5563 16.7192L47.0813 16.1836ZM43.6393 14.4903L43.2204 13.8682L42.2637 14.5125L42.6827 15.1346L43.1016 15.7566L44.0583 15.1124L43.6393 14.4903ZM40.4106 14.3413L41.1257 14.1152L40.6753 12.6907L39.9602 12.9168L39.2451 13.143L39.6955 14.5675L40.4106 14.3413ZM38.5895 11.8686L38.6205 11.1192L36.5132 11.0321L36.4822 11.7815L36.4512 12.5308L38.5586 12.6179L38.5895 11.8686ZM34.9367 13.0435L34.1963 12.9241L33.9103 14.6976L34.6507 14.817L35.3911 14.9365L35.6772 13.163L34.9367 13.0435ZM39.9602 12.9168L40.6753 12.6907C40.3893 11.7866 39.5679 11.1584 38.6205 11.1192L38.5895 11.8686L38.5586 12.6179C38.8751 12.631 39.1495 12.8409 39.2451 13.143L39.9602 12.9168ZM42.6827 15.1346L42.2637 14.5125C41.8469 14.7932 41.2773 14.5943 41.1257 14.1152L40.4106 14.3413L39.6955 14.5675C40.1491 16.0016 41.854 16.5969 43.1016 15.7566L42.6827 15.1346ZM47.5981 21.566L47.8065 20.8455C47.3639 20.7175 47.1392 20.2252 47.3325 19.8069L46.6517 19.4923L45.9708 19.1777C45.3923 20.4298 46.0647 21.9031 47.3896 22.2864L47.5981 21.566ZM49.0176 27.0734L49.2573 27.7841C50.1733 27.4751 50.79 26.6163 50.79 25.6496H50.04H49.29C49.29 25.9726 49.0839 26.2595 48.7779 26.3628L49.0176 27.0734ZM46.9995 32.814L47.5298 33.3444C48.2668 32.6074 48.402 31.4611 47.8566 30.5729L47.2175 30.9653L46.5784 31.3577C46.7606 31.6545 46.7154 32.0375 46.4692 32.2837L46.9995 32.814ZM43.6426 34.5275L43.2463 35.1643C44.1355 35.7178 45.2889 35.5853 46.0295 34.8447L45.4992 34.3144L44.9688 33.784C44.7214 34.0315 44.336 34.0757 44.039 33.8908L43.6426 34.5275ZM34.8463 35.872L34.123 36.0702C34.3911 37.049 35.2807 37.7276 36.2955 37.7276V36.9776V36.2276C35.9564 36.2276 35.6592 36.0009 35.5696 35.6738L34.8463 35.872ZM28.5755 34.1264H27.8255C27.8255 35.1863 28.4524 36.1458 29.4229 36.5715L29.7242 35.8847L30.0255 35.1979C29.6002 35.0113 29.3255 34.5909 29.3255 34.1264H28.5755ZM40.4108 34.6932L41.1217 34.9324C41.2765 34.472 41.8204 34.2767 42.2327 34.5334L42.629 33.8966L43.0254 33.2599C41.7912 32.4917 40.1634 33.0763 39.6999 34.4541L40.4108 34.6932ZM12.1554 36.4849L11.8666 35.7928C10.8724 36.2077 10.2249 37.1795 10.2249 38.2568H10.9749H11.7249C11.7249 37.7847 12.0086 37.3589 12.4443 37.1771L12.1554 36.4849ZM38.5625 36.9776V37.7276C39.5298 37.7276 40.3892 37.11 40.6976 36.1931L39.9867 35.954L39.2758 35.7149C39.1728 36.0212 38.8857 36.2276 38.5625 36.2276V36.9776ZM36.4822 11.7815L36.5132 11.0321C35.3732 10.985 34.378 11.7977 34.1963 12.9241L34.9367 13.0435L35.6772 13.163C35.7379 12.7866 36.0704 12.5151 36.4512 12.5308L36.4822 11.7815ZM14.8011 34.1016H14.0511C14.0511 34.5737 13.7673 34.9995 13.3317 35.1814L13.6205 35.8735L13.9094 36.5656C14.9036 36.1507 15.5511 35.1789 15.5511 34.1016H14.8011ZM31.0669 36.4737L30.7656 37.1605C31.1909 37.3471 31.4656 37.7675 31.4656 38.232H32.2156H32.9656C32.9656 37.1721 32.3387 36.2126 31.3682 35.7869L31.0669 36.4737ZM47.3935 17.8869L48.0743 18.2015C48.4738 17.337 48.2864 16.3146 47.6063 15.648L47.0813 16.1836L46.5563 16.7192C46.7835 16.9419 46.8461 17.2835 46.7126 17.5723L47.3935 17.8869ZM30.4806 18.023L29.736 18.1132C29.8145 18.76 30.4076 19.2315 31.0655 19.1418L30.9642 18.3987L30.8629 17.6556C31.0468 17.6305 31.2043 17.7608 31.2251 17.9327L30.4806 18.023ZM50.04 23.402H50.79C50.79 22.399 50.1269 21.5169 49.1634 21.2381L48.955 21.9586L48.7465 22.679C49.0684 22.7722 49.29 23.0669 49.29 23.402H50.04ZM12.266 18.2136L11.9871 18.9099C12.7073 19.1983 13.5411 18.7247 13.624 17.9266L12.878 17.8491L12.132 17.7717C12.1439 17.6574 12.2116 17.5757 12.2796 17.5354C12.3467 17.4956 12.445 17.4774 12.5449 17.5174L12.266 18.2136ZM45.5305 14.6635L46.0555 14.1279C45.2919 13.3794 44.1073 13.2709 43.2204 13.8682L43.6393 14.4903L44.0583 15.1124C44.3546 14.9128 44.7504 14.9491 45.0055 15.1991L45.5305 14.6635ZM39.2581 25.548L38.5139 25.4549C38.3056 27.1192 37.5645 28.6804 36.3468 29.7494L36.8416 30.3131L37.3364 30.8767C38.8711 29.5293 39.7558 27.6112 40.0023 25.6412L39.2581 25.548ZM46.5336 29.8514L47.1727 29.459C46.9197 29.0469 47.1154 28.5066 47.5735 28.3521L47.3338 27.6414L47.0941 26.9307C45.7228 27.3933 45.1372 29.0105 45.8944 30.2438L46.5336 29.8514ZM9.18345 31.5403L8.9212 32.2429C10.0125 32.6502 11.1574 32.7331 12.213 32.7469L12.2228 31.9969L12.2326 31.247C11.2235 31.2338 10.2889 31.1523 9.44569 30.8376L9.18345 31.5403Z" fill="#0058E6"/>
<circle cx="21.5791" cy="42.1955" r="2.00048" stroke="#0058E6" stroke-width="1.5"/>
<circle cx="10.9746" cy="42.1955" r="2.00048" stroke="#0058E6" stroke-width="1.5"/>
<circle cx="32.2178" cy="42.1955" r="2.00048" stroke="#0058E6" stroke-width="1.5"/>
</svg>
